<?xml version="1.0" standalone="no"?>
<!DOCTYPE svg PUBLIC "-//W3C//DTD SVG 20010904//EN"
 "http://www.w3.org/TR/2001/REC-SVG-20010904/DTD/svg10.dtd">
<svg version="1.0" xmlns="http://www.w3.org/2000/svg"
 width="76.000000pt" height="76.000000pt" viewBox="0 0 76.000000 76.000000"
 preserveAspectRatio="xMidYMid meet">
<metadata>
Created by potrace 1.14, written by Peter Selinger 2001-2017
</metadata>
<g transform="translate(0.000000,76.000000) scale(0.100000,-0.100000)"
fill="#000000" stroke="none">
<path d="M333 709 c-93 -17 -170 -67 -222 -143 -33 -47 -61 -133 -61 -183 0
-28 3 -33 18 -29 9 2 31 7 47 10 17 4 40 9 53 11 12 3 32 7 45 10 12 2 36 7
52 11 65 13 105 25 103 32 -2 6 11 89 18 117 2 10 5 26 22 118 5 26 7 47 3 48
-3 0 -13 2 -21 3 -8 1 -34 -1 -57 -5z"/>
<path d="M429 673 c-1 -21 -3 -47 -4 -58 -1 -11 -5 -59 -9 -107 l-8 -87 38 12
c21 6 64 36 96 66 42 38 67 54 88 55 17 1 30 5 30 10 0 22 -104 106 -156 125
-30 12 -59 21 -64 21 -6 0 -11 -17 -11 -37z"/>
<path d="M602 514 c-28 -19 -28 -48 -1 -67 32 -23 89 -2 89 33 0 20 -30 50
-51 50 -8 0 -25 -7 -37 -16z"/>
<path d="M690 431 c0 -15 -28 -20 -155 -26 -146 -8 -161 -17 -164 -99 -4 -119
-12 -191 -26 -218 -12 -25 -12 -30 1 -34 7 -2 21 -6 29 -9 8 -2 15 -1 15 3 0
4 18 8 39 9 95 4 209 92 258 199 23 51 37 141 25 172 -5 14 -22 16 -22 3z"/>
<path d="M355 390 c3 -5 10 -10 16 -10 5 0 9 5 9 10 0 6 -7 10 -16 10 -8 0
-12 -4 -9 -10z"/>
<path d="M258 354 c-3 -2 -136 -13 -175 -14 -30 0 -30 -30 1 -96 21 -45 107
-144 125 -144 3 0 6 16 7 35 1 28 10 44 52 84 49 47 59 62 76 119 7 21 5 22
-38 20 -25 0 -47 -2 -48 -4z"/>
<path d="M256 171 c-24 -27 -17 -72 13 -87 31 -16 50 -8 58 25 9 34 5 53 -15
69 -22 17 -36 15 -56 -7z"/>
</g>
</svg>
