<svg width="34" height="34" viewBox="0 0 34 34" fill="none" xmlns="http://www.w3.org/2000/svg">
<rect x="0.5" y="0.5" width="33" height="33" rx="3.5" fill="white"/>
<path d="M15.576 20.5H13.476L10.188 16.684H12.156C12.7 16.684 13.104 16.564 13.368 16.324C13.632 16.084 13.764 15.668 13.764 15.076C13.764 14.508 13.644 14.124 13.404 13.924C13.172 13.724 12.748 13.624 12.132 13.624H9.78V20.5H8.148V12.22H12.372C13.444 12.22 14.22 12.436 14.7 12.868C15.188 13.292 15.432 13.996 15.432 14.98C15.432 15.82 15.216 16.472 14.784 16.936C14.36 17.392 13.7 17.624 12.804 17.632L15.576 20.5Z" fill="black"/>
<path d="M22.048 16.708C22.544 16.38 22.9 16.06 23.116 15.748C23.332 15.436 23.44 15.1 23.44 14.74C23.44 14.332 23.312 14.02 23.056 13.804C22.8 13.588 22.36 13.48 21.736 13.48C21.128 13.48 20.672 13.604 20.368 13.852C20.072 14.1 19.94 14.544 19.972 15.184H18.304C18.216 13.088 19.364 12.04 21.748 12.04C24.02 12.04 25.156 12.932 25.156 14.716C25.156 15.3 25 15.82 24.688 16.276C24.384 16.724 23.848 17.18 23.08 17.644L21.004 19.024V19.096H25.276V20.5H18.172V19.348L22.048 16.708Z" fill="#33CCFF"/>
<rect x="0.5" y="0.5" width="33" height="33" rx="3.5" stroke="#F2F2F2"/>
</svg>
