<svg width="34" height="34" viewBox="0 0 34 34" fill="none" xmlns="http://www.w3.org/2000/svg">
<rect x="0.5" y="0.5" width="33" height="33" rx="3.5" fill="white"/>
<path fill-rule="evenodd" clip-rule="evenodd" d="M10.4545 11.5556C10.0027 11.5556 9.63636 11.9038 9.63636 12.3333V21.6667C9.63636 22.0962 10.0027 22.4444 10.4545 22.4444H23.5455C23.9973 22.4444 24.3636 22.0962 24.3636 21.6667V14.4366C24.3636 14.0071 23.9973 13.6588 23.5455 13.6588H18.0508C17.3845 13.6588 16.7469 13.4013 16.2843 12.9455L15.1151 11.7933C14.9609 11.6414 14.7483 11.5556 14.5262 11.5556H10.4545ZM8 12.3333C8 11.0447 9.09894 10 10.4545 10H14.5262C15.1925 10 15.8302 10.2575 16.2928 10.7133L17.462 11.8655C17.6162 12.0175 17.8287 12.1033 18.0508 12.1033H23.5455C24.9011 12.1033 26 13.148 26 14.4366V21.6667C26 22.9553 24.9011 24 23.5455 24H10.4545C9.09894 24 8 22.9553 8 21.6667V12.3333Z" fill="#E6E6E6"/>
<rect x="0.5" y="0.5" width="33" height="33" rx="3.5" stroke="#F2F2F2"/>
</svg>
