<svg width="34" height="34" viewBox="0 0 34 34" fill="none" xmlns="http://www.w3.org/2000/svg">
<rect x="0.5" y="0.5" width="33" height="33" rx="3.5" fill="white"/>
<path d="M5.536 12.22H7.336L9.196 17.644L11.02 12.22H12.1L13.984 17.62L15.772 12.22H17.548L14.632 20.5H13.516L11.56 14.992L9.664 20.5H8.536L5.536 12.22Z" fill="#E6E6E6"/>
<path d="M24.684 13.576C24.452 13.512 24.136 13.48 23.736 13.48C23.336 13.48 23.016 13.512 22.776 13.576C22.544 13.632 22.332 13.76 22.14 13.96C21.948 14.16 21.812 14.456 21.732 14.848C21.652 15.232 21.612 15.74 21.612 16.372C21.612 16.98 21.652 17.476 21.732 17.86C21.812 18.244 21.944 18.536 22.128 18.736C22.32 18.936 22.536 19.072 22.776 19.144C23.024 19.208 23.344 19.24 23.736 19.24C24.264 19.24 24.668 19.176 24.948 19.048C25.236 18.912 25.46 18.636 25.62 18.22C25.78 17.796 25.86 17.18 25.86 16.372C25.86 15.74 25.82 15.232 25.74 14.848C25.668 14.456 25.532 14.16 25.332 13.96C25.14 13.76 24.924 13.632 24.684 13.576ZM23.736 20.68C23.064 20.68 22.5 20.612 22.044 20.476C21.588 20.34 21.2 20.108 20.88 19.78C20.56 19.452 20.324 19.012 20.172 18.46C20.028 17.9 19.956 17.204 19.956 16.372C19.956 15.516 20.032 14.804 20.184 14.236C20.344 13.66 20.592 13.216 20.928 12.904C21.264 12.584 21.652 12.36 22.092 12.232C22.54 12.104 23.088 12.04 23.736 12.04C24.392 12.04 24.94 12.104 25.38 12.232C25.828 12.36 26.216 12.584 26.544 12.904C26.88 13.216 27.124 13.66 27.276 14.236C27.436 14.804 27.516 15.516 27.516 16.372C27.516 17.476 27.376 18.344 27.096 18.976C26.824 19.608 26.42 20.052 25.884 20.308C25.356 20.556 24.64 20.68 23.736 20.68Z" fill="#CCCCCC"/>
<rect x="0.5" y="0.5" width="33" height="33" rx="3.5" stroke="#F2F2F2"/>
</svg>
