<svg xmlns="http://www.w3.org/2000/svg" fill-rule="evenodd" clip-rule="evenodd" image-rendering="optimizeQuality" shape-rendering="geometricPrecision" text-rendering="geometricPrecision" viewBox="0 0 22104 5747"><defs/><defs><clipPath id="a"><path d="M0 0h22104v5747H0V0z"/></clipPath></defs><g clip-path="url(#a)" style="fill:#ffffff"><path d="M5672 2339a960 960 0 01-409 277c-121 38-245 28-367 35-568 33-1137 60-1706 86-67 3-116 20-159 73-58 71-125 136-191 200a86 86 0 00-27 62l-77 1118c-21 311-37 623-66 934a717 717 0 01-317 534c580 171 1642 36 2390-638 801-721 1096-1623 929-2683z" class="fil1"/><path d="M75 3172c521-119 1043-232 1568-335 9-5 17-12 26-14l932-195c54-11 100-21 113-94 80-433 164-866 249-1298 46-234 71-472 137-702 24-142 42-285 74-425 19-81-6-102-82-105C1889-48 970 434 360 1476 55 1998-48 2569 16 3170l57 2z" class="fil1"/><path fill-rule="nonzero" d="M301 4159c177 320 392 609 668 851 146 128 302 243 495 346-44-192-85-366-6-537 29-175 140-292 278-390 79-56 153-115 224-180 178-164 311-362 444-561l2-5c64-173 118-348 157-528 20-92 2-108-91-99-590 56-1180 106-1770 158-191 17-381 38-571 55-64 6-94 33-78 100 23 97 43 194 67 290 43 173 128 331 183 500z"/><path fill-rule="nonzero" d="M5349 1439A2860 2860 0 003395 46c-88-18-117 0-123 96-17 298-54 595-69 892-24 465-84 926-117 1391-6 90 9 106 102 87 528-105 939-387 1249-819a748 748 0 01771-291c43 10 85 22 141 37zM1619 5049c-1 84 11 163 48 240 77 156 193 262 372 262 178 0 303-99 377-257 72-156 82-316 12-478-79-183-255-295-429-271a477 477 0 00-368 371c-7 44-8 89-12 133z"/><path d="M5029 2447c318 0 551-236 505-495a412 412 0 00-285-324 533 533 0 00-575 104c-203 186-168 484 68 628 93 57 195 83 285 86z" class="fil1"/><path d="M2753 2908c83 9 119-43 124-107 4-65-40-111-109-109-65 2-113 39-112 109 1 61 20 117 98 107zM7117 797v203h679v348h-670v1988h-423V1348h-397v-348h397V793c0-454 273-754 771-754 181 0 357 44 476 137l-128 322a549 549 0 00-326-110c-251 0-379 141-379 410zm2887 1128v1411h-401v-309c-141 212-401 335-767 335-529 0-864-282-864-688 0-375 242-683 939-683h670v-84c0-357-207-564-626-564-278 0-560 97-740 251l-176-317c242-194 590-300 965-300 639 0 1000 309 1000 948zm-423 696v-326h-652c-419 0-538 163-538 361 0 234 194 379 516 379 317 0 568-145 674-414zm912 468l176-335c198 141 516 242 820 242 392 0 555-119 555-317 0-525-1476-71-1476-1001 0-419 375-701 974-701 304 0 648 79 850 212l-181 335a1217 1217 0 00-674-185c-370 0-551 137-551 322 0 551 1481 101 1481 1009 0 423-388 692-1009 692-388 0-771-119-965-273zm3816 110c-128 110-322 163-511 163-472 0-740-260-740-732V1347h-397V999h397V488h423v511h670v348h-670v1265c0 251 132 392 366 392 123 0 242-40 331-110l132 304zm577-3134h221v3271h-221zm1080 234c0-97 79-181 181-181 101 0 181 79 181 176 0 101-79 181-181 181-101 0-181-79-181-176zm71 736h220v2301h-220V1035zm3207 957v1344h-220V2009c0-520-278-793-745-793-542 0-873 348-873 895v1225h-220V1035h212v498c154-322 476-516 912-516 560 0 934 331 934 974zm2856 246h-1979c22 547 423 917 974 917 291 0 560-106 736-322l128 145c-203 247-520 375-868 375-696 0-1185-485-1185-1168s472-1168 1102-1168 1097 476 1097 1159c0 18-4 40-4 62zm-1974-172h1763c-31-498-392-855-881-855s-846 353-881 855zM6292 5617l64-112c84 66 226 118 374 118 200 0 282-68 282-172 0-274-682-58-682-474 0-172 148-300 416-300 136 0 284 38 372 98l-62 114c-92-64-202-90-310-90-190 0-274 74-274 174 0 284 682 70 682 474 0 182-160 300-434 300-174 0-342-56-428-130zm2079 56c-56 50-140 74-222 74-198 0-308-112-308-306v-636h-188v-120h188v-230h142v230h320v120h-320v628c0 124 64 192 182 192 58 0 116-18 156-54l50 102zm1606-988v1052h-136v-192a418 418 0 01-378 202c-268 0-444-150-444-452v-610h142v596c0 224 116 338 316 338 220 0 358-142 358-382v-552h142zm1758-433v1485h-136v-208a456 456 0 01-406 218c-300 0-524-218-524-536s224-534 524-534c168 0 312 72 400 208v-632h142zm-140 958c0-246-168-410-390-410-224 0-392 164-392 410s168 410 392 410c222 0 390-164 390-410zm904-858c0-54 46-100 104-100a101 101 0 110 202c-58 0-104-46-104-102zm32 332h142v1052h-142V4684zm833 527c0-312 228-534 536-534s534 222 534 534-226 536-534 536-536-224-536-536zm926 0c0-246-166-410-390-410s-392 164-392 410 168 410 392 410 390-164 390-410z" class="fil1"/></g></svg>