<svg xmlns="http://www.w3.org/2000/svg" viewBox="0 0 300 56" xml:space="preserve"><path fill-rule="evenodd" clip-rule="evenodd" fill="#5F6368" d="m177.411732 33.390888 10.21376-4.243397c-.562485-1.42598-2.249985-2.422682-4.238449-2.422682-2.555924 0-6.103592 2.249985-5.975311 6.666079m11.985122 4.110172 3.893066 2.595379c-1.253281 1.860188-4.282867 5.062469-9.518036 5.062469-6.488449 0-11.175919-5.022995-11.175919-11.42263 0-6.799303 4.731873-11.427567 10.613434-11.427567 5.930878 0 8.82724 4.717077 9.779541 7.272984l.518097 1.297689-15.27623 6.315752c1.169388 2.294395 2.985168 3.463799 5.541077 3.463799 2.55098 0 4.327286-1.258217 5.624969-3.157879m-24.75479 6.967068h5.018066v-33.58204h-5.018066v33.58204zm-8.190735-10.692375c0-4.021357-2.684189-6.967064-6.103577-6.967064-3.458878 0-6.360168 2.945707-6.360168 6.967064 0 3.981888 2.901306 6.883186 6.360168 6.883186 3.419388 0 6.103577-2.901298 6.103577-6.883186zm4.411148-10.771319v20.511396c0 8.43745-4.973648 11.901245-10.860138 11.901245-5.541092 0-8.871658-3.720375-10.124939-6.749962l4.371689-1.820713c.779602 1.860188 2.684189 4.065769 5.758194 4.065769 3.764786 0 6.103577-2.33387 6.103577-6.705555v-1.643078h-.172699c-1.124985 1.386505-3.291092 2.595379-6.014755 2.595379-5.713791 0-10.948944-4.978592-10.948944-11.38316 0-6.448977 5.235168-11.467039 10.948944-11.467039 2.728607 0 4.889771 1.208876 6.014755 2.550974h.172699V22.9995c-.004929.004934 4.751617.004934 4.751617.004934v-.000004zm-54.774345 10.731852c0-4.11511-2.930901-6.922659-6.330559-6.922659s-6.330559 2.812485-6.330559 6.922659c0 4.065765 2.930908 6.922657 6.330559 6.922657 3.394722 0 6.330559-2.856896 6.330559-6.922657m4.924316 0c0 6.577263-5.057533 11.42263-11.259804 11.42263-6.202263 0-11.259796-4.845367-11.259796-11.42263 0-6.621674 5.057533-11.422634 11.259796-11.422634 6.207207 0 11.259804 4.80096 11.259804 11.422634m20.314034 0c0-4.11511-2.930908-6.922659-6.330566-6.922659s-6.330559 2.812485-6.330559 6.922659c0 4.065765 2.930901 6.922657 6.330559 6.922657s6.330566-2.856896 6.330566-6.922657m4.929229 0c0 6.577263-5.057526 11.42263-11.259796 11.42263-6.202263 0-11.259804-4.845367-11.259804-11.42263 0-6.621674 5.057541-11.422634 11.259804-11.422634 6.202271 0 11.259796 4.80096 11.259796 11.422634m-67.050598 11.42263c-9.779545 0-17.999893-7.963772-17.999893-17.743319S59.4305 9.672275 69.210056 9.672275c5.412788 0 9.261452 2.121698 12.162758 4.894708l-3.419395 3.419387c-2.077286-1.949001-4.889771-3.463796-8.743362-3.463796-7.139763 0-12.725262 5.758191-12.725262 12.897954s5.585491 12.893017 12.725262 12.893017c4.628265 0 7.268051-1.860188 8.960472-3.54768 1.386505-1.381569 2.294395-3.374981 2.639786-6.098646H69.210056v-4.845367h16.312401c.177628.863482.261513 1.904593.261513 3.029589 0 3.636494-.996704 8.136467-4.194054 11.338749-3.123337 3.24176-7.105225 4.968723-12.384796 4.968723"/><g fill="#63666A"><path d="M205.362041 44.1519V14.340786h3.830522l10.367324 18.153194h.166545l10.367256-18.153194h3.830521V44.1519h-3.830521V26.45682l.166545-4.996287h-.166545l-9.326385 16.362827h-2.248355l-9.326385-16.362827h-.166545l.166545 4.996287V44.1519h-3.830522zM245.707087 44.818089c-2.16505 0-3.976212-.62447-5.433484-1.873543-1.457209-1.249071-2.185845-2.893685-2.185845-4.954699 0-2.227496.85353-3.955415 2.581387-5.225216 1.72792-1.26993 3.851317-1.894532 6.370252-1.894532 2.248356 0 4.10117.4164 5.537582 1.249072v-.582883c0-1.49886-.520435-2.706344-1.540515-3.601462s-2.290006-1.353106-3.78887-1.353106c-1.103319 0-2.123398.270647-3.01858.791083s-1.519719 1.249072-1.852813 2.165049l-3.497364-1.49899c.478785-1.228213 1.394762-2.352391 2.789587-3.393262s3.22678-1.561307 5.49593-1.561307c2.602179 0 4.767295.770224 6.495148 2.289943s2.581386 3.684768 2.581386 6.453559v12.324109h-3.663909v-2.831238h-.166545c-1.51972 2.331657-3.768007 3.497423-6.703347 3.497423zm.624538-3.497427c1.582166 0 3.018579-.582883 4.309306-1.769508 1.29066-1.186625 1.936057-2.581319 1.936057-4.184344-1.082527-.895118-2.706344-1.332378-4.871393-1.332378-1.852814 0-3.268368.395541-4.205204 1.207484-.936773.811811-1.415621 1.748648-1.415621 2.831238 0 .999152.437192 1.790235 1.290723 2.373249.853526.582883 1.852746.874259 2.956132.874259zM271.167306 44.818089c-1.561307 0-2.956132-.333095-4.184412-.999284-1.228212-.666189-2.165049-1.49886-2.76879-2.498143h-.166546l.166545 2.831238v8.99329h-3.830458V23.750478h3.663909v2.831238h.166545c.603742-.999284 1.540578-1.831955 2.76879-2.498144 1.228277-.666189 2.623102-.999283 4.184413-.999283 2.643833 0 4.91298 1.04087 6.828241 3.122613 1.915261 2.081874 2.87289 4.663193 2.87289 7.74435 0 3.081026-.957629 5.66235-2.87289 7.744218-1.915189 2.081747-4.18434 3.122619-6.828237 3.122619zm-.624534-3.497427c1.769508 0 3.310023-.66619 4.579954-2.019296 1.269868-1.353107 1.915197-3.122614 1.915197-5.35024 0-2.227497-.64533-3.997004-1.915197-5.35011-1.269931-1.353238-2.810442-2.019296-4.579954-2.019296-1.811162 0-3.330877.666058-4.600745 1.998436s-1.894402 3.122745-1.894402 5.37097c0 2.248355.624538 4.038721 1.894402 5.3711 1.269863 1.332247 2.810442 1.998436 4.600745 1.998436zM291.964333 44.818089c-2.269151 0-4.163553-.562024-5.641617-1.665473-1.478068-1.103318-2.58145-2.498143-3.268367-4.163485l3.41412-1.415685c1.082527 2.56059 2.935273 3.830522 5.53752 3.830522 1.186624 0 2.165048-.270648 2.935335-.791083.770224-.520436 1.144974-1.228213 1.144974-2.081743 0-1.332378-.936773-2.227496-2.789587-2.706344l-4.12196-.999283c-1.31152-.333095-2.539732-.957565-3.705565-1.894402s-1.748711-2.185908-1.748711-3.768074c0-1.811095.791083-3.268368 2.394045-4.392545s3.497427-1.686201 5.683272-1.686201c1.811163 0 3.41412.4164 4.829742 1.228212 1.41562.811943 2.435696 1.998567 3.039438 3.518286l-3.330877 1.373966c-.749433-1.811226-2.310803-2.706344-4.663193-2.706344-1.144974 0-2.102602.22893-2.872889.707777-.770224.478848-1.165829 1.103319-1.165829 1.915261 0 1.165765.895182 1.956849 2.706344 2.37325l4.038659.957564c1.91526.43726 3.330878 1.207484 4.246859 2.290074.915977 1.08246 1.373966 2.310672 1.373966 3.66391 0 1.831953-.749432 3.351673-2.248292 4.579885-1.49894 1.207484-3.434997 1.831955-5.787387 1.831955z"/></g><path fill="#34A853" d="M10.573962 41.265546c1.702271 2.126632 3.42926 4.79109 4.337158 6.404568 1.105225 2.097028 1.559204 3.513139 2.383179 6.039441.483582 1.391437.9375 1.815781 1.899658 1.815781 1.051025 0 1.529602-.710523 1.899658-1.815781.764832-2.383209 1.361877-4.194055 2.294434-5.925952 1.840454-3.315771 4.169373-6.266411 6.434143-9.098633.621704-.794402 4.59375-5.47201 6.379944-9.182512 0 0 2.180908-4.055899 2.180908-9.725271 0-5.299313-2.15625-8.985149-2.15625-8.985149l-6.236816 1.672688-3.799316 9.976917-.9375 1.361834-.197388.256578-.256531.310854-.424377.508219-.621704.621708-3.374939 2.748341-8.417725 4.874971-1.386536 8.141398z"/><path fill="#FBBC04" d="M1.870044 28.821537c2.067444 4.707212 6.009888 8.817385 8.703918 12.444009l14.259766-16.894638s-2.013123 2.634851-5.639771 2.634851c-4.055847 0-7.342041-3.231888-7.342041-7.312458 0-2.807549 1.672668-4.73188 1.672668-4.73188l-9.670959 2.580578-1.983581 11.279538z"/><path fill="#4285F4" d="M25.001514 1.352946c4.731873 1.529598 8.787781 4.73188 11.225281 9.468697L24.828846 24.400512s1.672668-1.953936 1.672668-4.73188c0-4.169384-3.513123-7.312458-7.312439-7.312458-3.60199 0-5.669373 2.610184-5.669373 2.610184V6.400616l11.481812-5.04767z"/><path fill="#1A73E8" d="M4.47533 7.333174C7.307544 3.958193 12.271351.474661 19.129871.474661c3.315735 0 5.837097.878284 5.837097.878284L13.519702 14.96142H5.412829L4.47533 7.333174z"/><path fill="#EA4335" d="M1.870044 28.821537s-1.870056-3.715439-1.870056-9.069025c0-5.072342 1.983582-9.498302 4.504944-12.389732l9.044373 7.62331L1.870044 28.821537z"/></svg>